<?xml version="1.0" standalone="no"?><!DOCTYPE svg PUBLIC "-//W3C//DTD SVG 1.1//EN" "http://www.w3.org/Graphics/SVG/1.1/DTD/svg11.dtd"><svg t="1603444593081" class="icon" viewBox="0 0 1024 1024" version="1.1" xmlns="http://www.w3.org/2000/svg" p-id="5728" xmlns:xlink="http://www.w3.org/1999/xlink" width="64" height="64"><defs><style type="text/css"></style></defs><path d="M441.6 697.6c-19.2 0-38.4-6.4-51.2-19.2l-166.4-166.4c-12.8-12.8-12.8-32 0-44.8s32-12.8 44.8 0l166.4 166.4h6.4l300.8-300.8c12.8-12.8 32-12.8 44.8 0s12.8 32 0 44.8l-300.8 300.8c-6.4 12.8-25.6 19.2-44.8 19.2z" fill="#515151" p-id="5729"></path><path d="M512 1024c-281.6 0-512-230.4-512-512s230.4-512 512-512 512 230.4 512 512-230.4 512-512 512z m0-960c-249.6 0-448 198.4-448 448s198.4 448 448 448 448-198.4 448-448-198.4-448-448-448z" fill="#515151" p-id="5730"></path></svg>