<?xml version="1.0" standalone="no"?><!DOCTYPE svg PUBLIC "-//W3C//DTD SVG 1.1//EN" "http://www.w3.org/Graphics/SVG/1.1/DTD/svg11.dtd"><svg t="1603439582574" class="icon" viewBox="0 0 1024 1024" version="1.1" xmlns="http://www.w3.org/2000/svg" p-id="14451" xmlns:xlink="http://www.w3.org/1999/xlink" width="64" height="64"><defs><style type="text/css"></style></defs><path d="M257.458176 1024a49.8688 49.8688 0 0 0 32.9728-12.8l509.3376-454.9632A61.0304 61.0304 0 0 0 819.326976 510.7712a60.7232 60.7232 0 0 0-19.5584-45.3632L292.581376 12.8a49.0496 49.0496 0 0 0-73.728 9.0112 62.7712 62.7712 0 0 0 7.9872 81.92l456.192 407.1424L224.587776 920.2688a62.7712 62.7712 0 0 0-8.192 81.92c10.5472 14.336 25.6 21.8112 41.0624 21.8112z" fill="#000000" opacity=".65" p-id="14452"></path></svg>