<?xml version="1.0" standalone="no"?><!DOCTYPE svg PUBLIC "-//W3C//DTD SVG 1.1//EN" "http://www.w3.org/Graphics/SVG/1.1/DTD/svg11.dtd"><svg t="1603037306655" class="icon" viewBox="0 0 1024 1024" version="1.1" xmlns="http://www.w3.org/2000/svg" p-id="4410" xmlns:xlink="http://www.w3.org/1999/xlink" width="64" height="64"><defs><style type="text/css"></style></defs><path d="M81.92 932.992v-887.466667C81.92 20.352 63.616 0 40.96 0 18.304 0 0 20.352 0 45.525333v932.949334C0 1003.648 18.304 1024 40.96 1024h942.08c22.656 0 40.96-20.352 40.96-45.525333s-18.304-45.482667-40.96-45.482667H81.92z" fill="#2c2c2c" p-id="4411"></path><path d="M263.594667 512v383.104H170.666667V512zM384 384h92.928v511.104H384zM597.333333 512h92.928v383.104H597.333333zM810.666667 341.333333h92.928v553.770667H810.666667zM413.994667 95.146667L223.232 284.16a33.28 33.28 0 0 0 0 47.36 34.005333 34.005333 0 0 0 47.744 0l166.954667-165.504 166.997333 165.461333a34.005333 34.005333 0 0 0 47.744 0l190.762667-189.056a33.28 33.28 0 0 0 0-47.36 34.005333 34.005333 0 0 0-47.744 0l-167.082667 165.504L461.653333 95.146667a33.877333 33.877333 0 0 0-47.658666 0z" fill="#2c2c2c" p-id="4412"></path></svg>