<?xml version="1.0" standalone="no"?><!DOCTYPE svg PUBLIC "-//W3C//DTD SVG 1.1//EN" "http://www.w3.org/Graphics/SVG/1.1/DTD/svg11.dtd"><svg t="1603037147092" class="icon" viewBox="0 0 1024 1024" version="1.1" xmlns="http://www.w3.org/2000/svg" p-id="2587" xmlns:xlink="http://www.w3.org/1999/xlink" width="64" height="64"><defs><style type="text/css"></style></defs><path d="M827.436694 547.161824L463.126384 886.798175c-27.40107 25.651216-71.577199 25.318642-98.467639-0.75827L125.249097 653.883451c-26.461675-25.659403-26.971281-67.923996-1.14201-94.328365L562.672588 111.245663l-15.918551 6.69754h300.759925c36.846186 0 66.642816 29.866215 66.642816 66.961064v289.308105c0 12.297071 9.969049 22.26612 22.267143 22.26612 12.297071 0 22.267143-9.969049 22.267142-22.26612v-289.309128c0-61.666478-49.710169-111.49535-111.176078-111.495351h-300.759925a22.262026 22.262026 0 0 0-15.916505 6.695493l-438.56243 448.310445c-43.067888 44.024679-42.215474 114.589828 1.972934 157.440776l239.409648 232.154407c43.965328 42.632983 115.178229 43.171242 159.871128 1.330298l364.277564-339.604628c8.994861-8.385994 9.489118-22.475897 1.103124-31.470759-8.388041-8.993838-22.477944-9.488095-31.473829-1.102101z" fill="#070001" p-id="2588"></path><path d="M724.889133 407.410943c55.339376 0 100.200096-44.86072 100.200097-100.200096s-44.86072-100.20112-100.200097-100.20112c-55.339376 0-100.200096 44.861744-100.200096 100.20112 0 55.338353 44.86072 100.200096 100.200096 100.200096z m0-44.534285c-30.744211 0-55.666834-24.923646-55.666834-55.666834 0-30.744211 24.922622-55.667857 55.666834-55.667857s55.666834 24.923646 55.666834 55.667857-24.922622 55.666834-55.666834 55.666834z" fill="#070001" p-id="2589"></path></svg>