<?xml version="1.0" standalone="no"?><!DOCTYPE svg PUBLIC "-//W3C//DTD SVG 1.1//EN" "http://www.w3.org/Graphics/SVG/1.1/DTD/svg11.dtd"><svg t="1603334812744" class="icon" viewBox="0 0 1024 1024" version="1.1" xmlns="http://www.w3.org/2000/svg" p-id="5214" xmlns:xlink="http://www.w3.org/1999/xlink" width="64" height="64"><defs><style type="text/css"></style></defs><path d="M207.385859 561.00202l-125.155556-125.155555c-6.593939-6.593939-13.187879-6.593939-19.911111 0-6.593939 6.593939-6.593939 13.187879 0 19.911111L188.121212 588.153535l-125.80202 125.802021c-6.593939 6.593939-6.593939 13.187879 0 19.911111 0 0 6.593939 4.913131 13.187879 0l125.80202-125.802021c17.325253-19.781818 26.505051-26.505051 6.076768-47.062626z m7.240404 7.240404" fill="#515151" p-id="5215"></path><path d="M201.438384 713.955556c-6.593939 6.593939-6.593939 13.187879 0 19.911111 0 0 4.654545 6.593939 13.187879 0l125.80202-125.802021c6.593939-6.593939 11.765657-13.187879 11.765656-19.911111 0-6.593939-5.171717-13.187879-11.765656-19.911111L214.626263 435.846465c-6.593939-6.593939-13.187879-6.593939-19.911111 0-6.593939 6.593939-6.593939 13.187879 0 19.911111l125.80202 132.395959-119.078788 125.802021z m0 0M742.917172 541.737374l-79.385859-152.307071h-46.286869l92.573738 159.030303h-72.791919v33.09899h86.109091v46.286869h-86.109091v33.09899h86.109091v66.197979H769.292929v-66.197979h79.385859v-33.09899h-86.109091v-46.286869h86.109091v-33.09899h-66.19798L875.313131 389.559596h-53.010101L742.917172 541.737374zM822.30303 389.559596" fill="#515151" p-id="5216"></path><path d="M888.630303 160.452525H135.369697c-66.19798 0-125.80202 53.010101-125.80202 125.80202v59.604041c0 13.187879 13.187879 26.505051 26.50505 26.50505 13.187879 0 26.505051-13.187879 26.505051-26.50505v-59.604041c0-39.692929 33.09899-72.791919 72.791919-72.791919h753.260606c39.692929 0 72.791919 33.09899 72.791919 72.791919v456.79192c0 39.692929-33.09899 72.791919-72.791919 72.791919H135.369697c-13.187879 0-33.09899-6.593939-46.286869-13.187879-13.187879-6.593939-38.917172-3.878788-45.511111 9.438384-6.593939 13.187879-1.551515 32.581818 11.636364 39.175757 19.911111 13.187879 53.656566 17.583838 80.161616 17.583839h753.260606c72.791919 0 125.80202-59.60404 125.80202-125.80202V286.254545c0-72.921212-59.60404-125.80202-125.80202-125.80202z m0 0" fill="#515151" p-id="5217"></path></svg>