<?xml version="1.0" standalone="no"?><!DOCTYPE svg PUBLIC "-//W3C//DTD SVG 1.1//EN" "http://www.w3.org/Graphics/SVG/1.1/DTD/svg11.dtd"><svg t="1603629809441" class="icon" viewBox="0 0 1024 1024" version="1.1" xmlns="http://www.w3.org/2000/svg" p-id="44596" xmlns:xlink="http://www.w3.org/1999/xlink" width="64" height="64"><defs><style type="text/css"></style></defs><path d="M701.19424 460.06272c0 18.54976 12.34944 30.8992 30.8992 30.8992s30.8992-12.34944 30.8992-30.8992c-0.29184-102.30272-83.15904-185.1648-185.46176-185.45664-18.54976 0-30.8992 12.34944-30.8992 30.90432 0 18.54976 12.40064 30.8992 30.8992 30.8992 68.21888 0.18944 123.47392 55.43936 123.66336 123.65312z m123.65824 0c0 18.54976 12.34944 30.8992 30.8992 30.8992s30.8992-12.34944 30.8992-30.8992c0-169.984-139.13088-309.11488-309.11488-309.11488-18.54976 0-30.8992 12.40064-30.8992 30.9504 0 18.55488 12.40064 30.90432 30.8992 30.90432 136.00768 0 247.31648 111.30368 247.31648 247.26016zM407.55712 351.88224c34.02752-33.97632 37.10464-86.5536 6.20032-123.65312L317.9264 107.6992c-30.8992-40.17664-89.6256-46.37696-129.85344-15.47776-3.07712 3.1232-6.14912 3.1232-6.14912 6.20032L98.44224 181.89824c-80.35328 80.35328 34.02752 296.71424 241.15712 503.79264 207.03744 207.08864 420.27008 318.39232 500.62336 241.11104l83.4816-83.4816c37.09952-37.09952 37.09952-95.82592 0-129.80736l-6.15424-6.20032-120.58112-95.82592c-37.04832-30.8992-89.5744-27.8272-123.60704 6.20032l-52.5312 52.57728c-55.64928-34.02752-105.09824-71.12704-148.39808-114.37568-43.25376-43.30496-80.3072-92.75904-114.3296-148.40832l49.45408-55.59808z m-43.25376-83.47648c9.27744 12.40064 9.27744 30.9504-3.1232 40.22272L293.17632 379.70944a32.85504 32.85504 0 0 0-6.14912 37.10464 801.88928 801.88928 0 0 0 136.00256 182.33344 801.71008 801.71008 0 0 0 182.32832 136.00256 32.86016 32.86016 0 0 0 37.10464-6.20032l71.08096-71.08096c12.40064-12.35456 27.8272-12.35456 40.22272-3.07712l120.52992 98.90304s3.072 0 3.072 3.072a29.88032 29.88032 0 0 1 0 43.30496l-83.47648 83.4816c-40.12544 40.13056-231.7824-61.8496-414.16704-241.16224-182.32832-179.2512-281.23136-373.93408-241.05472-414.16192l86.50752-86.5536c12.40064-9.27744 34.02752-9.27744 43.29984 6.20032l95.83104 120.58112v-0.0512z" p-id="44597" fill="#515151"></path></svg>