<?xml version="1.0" standalone="no"?><!DOCTYPE svg PUBLIC "-//W3C//DTD SVG 1.1//EN" "http://www.w3.org/Graphics/SVG/1.1/DTD/svg11.dtd"><svg t="1603628648382" class="icon" viewBox="0 0 1024 1024" version="1.1" xmlns="http://www.w3.org/2000/svg" p-id="22614" xmlns:xlink="http://www.w3.org/1999/xlink" width="64" height="64"><defs><style type="text/css"></style></defs><path d="M512 416.206452c56.154839 0 102.4-44.593548 102.4-100.748387s-46.245161-100.748387-102.4-100.748388c-56.154839 0-102.4 44.593548-102.4 100.748388s46.245161 100.748387 102.4 100.748387z m0-151.948387c29.729032 0 52.851613 23.122581 52.851613 51.2s-23.122581 51.2-52.851613 51.2-52.851613-23.122581-52.851613-51.2 24.774194-51.2 52.851613-51.2zM614.4 710.193548c0-56.154839-46.245161-100.748387-102.4-100.748387-56.154839 0-102.4 44.593548-102.4 100.748387 0 56.154839 46.245161 100.748387 102.4 100.748387 56.154839 0 102.4-44.593548 102.4-100.748387z m-155.251613 0c0-28.077419 23.122581-51.2 52.851613-51.2s52.851613 23.122581 52.851613 51.2-23.122581 51.2-52.851613 51.2-52.851613-23.122581-52.851613-51.2zM698.632258 614.4c56.154839 0 102.4-44.593548 102.4-100.748387 0-56.154839-46.245161-100.748387-102.4-100.748387-56.154839 0-102.4 44.593548-102.4 100.748387 0 54.503226 46.245161 100.748387 102.4 100.748387z m0-153.6c29.729032 0 52.851613 23.122581 52.851613 51.2s-23.122581 51.2-52.851613 51.2-52.851613-23.122581-52.851613-51.2 23.122581-51.2 52.851613-51.2z" fill="#515151" p-id="22615"></path><path d="M891.870968 868.748387h-181.67742c128.825806-69.367742 214.709677-203.148387 214.709678-355.096774 0-224.619355-184.980645-404.645161-412.903226-404.645161s-412.903226 181.677419-412.903226 404.645161c0 224.619355 184.980645 404.645161 412.903226 404.645161h381.522581c13.212903 0 24.774194-11.56129 24.774193-24.774193s-11.56129-24.774194-26.425806-24.774194z m-743.225807-356.748387c0-196.541935 163.509677-355.096774 363.354839-355.096774s363.354839 160.206452 363.354839 355.096774-163.509677 355.096774-363.354839 355.096774-363.354839-158.554839-363.354839-355.096774z" fill="#515151" p-id="22616"></path><path d="M325.367742 411.251613c-56.154839 0-102.4 44.593548-102.4 100.748387 0 56.154839 46.245161 100.748387 102.4 100.748387 56.154839 0 102.4-44.593548 102.4-100.748387 0-54.503226-44.593548-100.748387-102.4-100.748387z m0 153.6c-29.729032 0-52.851613-23.122581-52.851613-51.2s23.122581-51.2 52.851613-51.2 52.851613 23.122581 52.851613 51.2-23.122581 51.2-52.851613 51.2z" fill="#515151" p-id="22617"></path></svg>