<?xml version="1.0" standalone="no"?><!DOCTYPE svg PUBLIC "-//W3C//DTD SVG 1.1//EN" "http://www.w3.org/Graphics/SVG/1.1/DTD/svg11.dtd"><svg t="1603628828745" class="icon" viewBox="0 0 1024 1024" version="1.1" xmlns="http://www.w3.org/2000/svg" p-id="29032" xmlns:xlink="http://www.w3.org/1999/xlink" width="64" height="64"><defs><style type="text/css"></style></defs><path d="M901.991489 43.574468h-784.340425C52.289362 43.574468 0 95.86383 0 161.225532v527.251064c0 65.361702 52.289362 122.008511 122.008511 122.00851H479.319149V915.06383H239.659574c-17.429787 0-34.859574 13.07234-34.859574 34.859574s13.07234 34.859574 34.859574 34.859575H784.340426c17.429787 0 34.859574-13.07234 34.859574-34.859575s-17.429787-34.859574-34.859574-34.859574h-239.659575v-108.93617h357.310638c65.361702 0 122.008511-52.289362 122.008511-122.008511v-522.893617c0-65.361702-52.289362-117.651064-122.008511-117.651064zM958.638298 688.476596c0 30.502128-26.144681 56.646809-56.646809 56.646808h-784.340425c-30.502128 0-52.289362-26.144681-52.289362-56.646808V161.225532c0-30.502128 26.144681-56.646809 52.289362-56.646809h784.340425c30.502128 0 56.646809 26.144681 56.646809 56.646809v527.251064z" fill="#515151" p-id="29033"></path><path d="M840.987234 265.804255c-4.357447-8.714894-8.714894-13.07234-21.787234-17.429787-34.859574-13.07234-169.940426-13.07234-200.442553-13.07234-17.429787 0-34.859574 13.07234-34.859575 30.502127 0 17.429787 13.07234 34.859574 30.502128 34.859575L740.765957 305.021277l-156.868085 156.868085-130.723404-130.723405c-13.07234-13.07234-34.859574-13.07234-47.931915 0L169.940426 566.468085c-13.07234 13.07234-13.07234 34.859574 0 47.931915 4.357447 4.357447 13.07234 8.714894 21.787234 8.714894s17.429787-4.357447 21.787234-8.714894l209.157446-213.514894 130.723405 130.723405c13.07234 13.07234 34.859574 13.07234 47.931915 0l174.297872-174.297873v104.578724c0 17.429787 13.07234 34.859574 34.859574 34.859574s34.859574-13.07234 34.859575-34.859574V296.306383c0-8.714894 0-21.787234-4.357447-30.502128z" fill="#515151" p-id="29034"></path></svg>