<?xml version="1.0" standalone="no"?><!DOCTYPE svg PUBLIC "-//W3C//DTD SVG 1.1//EN" "http://www.w3.org/Graphics/SVG/1.1/DTD/svg11.dtd"><svg t="1603628688860" class="icon" viewBox="0 0 1024 1024" version="1.1" xmlns="http://www.w3.org/2000/svg" p-id="24155" xmlns:xlink="http://www.w3.org/1999/xlink" width="64" height="64"><defs><style type="text/css"></style></defs><path d="M815 465c0-7.7-6.4-14-14.1-14H595.1l-7.3-126.9c0-10.4-9.8-18.9-21.9-18.9H435.7c-12.1 0-21.9 8.5-21.9 18.9L408 451H199.1c-7.7 0-14.1 6.3-14.1 14v4c0 0.4 0 0.9 0.1 1.3 2.1 126.8 79.1 235.4 188.7 283.4l-31.5 100.7c-3.4 10.7 4.7 21.7 15.9 21.7H643c11.4 0 19.4-11.1 15.9-21.9L626 753.9c109.7-48 186.9-156.6 188.9-283.5 0-0.4 0.1-0.9 0.1-1.3v-0.8-3.3zM445.1 347.5c0-8.4 8-15.3 17.8-15.3h72.6c9.8 0 17.8 6.8 17.8 15.3l6.4 103.5H437.4l7.7-103.5zM607 850.2H398c-7.8 0-13.3-7.5-11.1-14.9l20.6-69c29.3 9 60.3 13.8 92.5 13.8 32.3 0 63.4-4.9 92.7-13.9l23.6 71c2.2 6.4-2.6 13-9.3 13zM500 744c-140.2 0-255.4-107-268.3-243.9-0.7-7.1 5-13.2 12.1-13.2h512.3c7.3 0 12.9 6.3 12.2 13.6C755.2 637.2 640.1 744 500 744z" fill="#515151" p-id="24156"></path><path d="M326.1 434.7c7.5-2.7 12.3-9.2 16.9-15.4 4.1-5.5 8.1-11 12.2-16.6 5.2-7.1 10.7-14.8 11.1-23.7 0.9-20.1-24.3-34.5-22.9-54.7 0.2-3.5 1.3-6.9 2.8-10.2 2.4-5.3 5.9-10.2 10.5-13.8 3.2-2.5 7.2-4.6 8.5-8.4 0.7-2 0.6-4.2 0-6.2-2.8-9.4-14.8-13.4-24.3-10.9-7.8 2.1-14.7 7.5-18.5 14.7l2.1-4.2c-9.3 15-18.2 31.9-16.1 49.4 0.5 4 1.6 8.1 3.9 11.4 1.7 2.5 4.1 4.5 6 6.9 5.3 6.4 7.3 15.2 6.5 23.5-0.8 8.3-4.1 16.2-8.4 23.3-3 5.1-6.6 9.9-8.4 15.6-2.3 7.5-0.8 17 8.3 19.6 3.3 1.1 6.7 0.8 9.8-0.3zM490.7 285.8c7.5-2.7 12.3-9.2 16.9-15.4 4.1-5.5 8.1-11 12.2-16.6 5.2-7.1 10.7-14.8 11.1-23.7 0.9-20.1-24.3-34.5-22.9-54.7 0.2-3.5 1.3-6.9 2.8-10.2 2.4-5.3 5.9-10.2 10.5-13.8 3.2-2.5 7.2-4.6 8.5-8.4 0.7-2 0.6-4.2 0-6.2-2.8-9.4-14.8-13.4-24.3-10.9-7.8 2.1-14.7 7.5-18.5 14.7l2.1-4.2c-9.3 15-18.2 31.9-16.1 49.4 0.5 4 1.6 8.1 3.9 11.4 1.7 2.5 4.1 4.5 6 6.9 5.3 6.4 7.3 15.2 6.5 23.5-0.8 8.3-4.1 16.2-8.4 23.3-3 5.1-6.6 9.9-8.4 15.6-2.3 7.5-0.8 17 8.3 19.6 3.3 1.1 6.7 0.9 9.8-0.3zM656.8 439.4c7.5-2.7 12.3-9.2 16.9-15.4 4.1-5.5 8.1-11 12.2-16.6 5.2-7.1 10.7-14.8 11.1-23.7 0.9-20.1-24.3-34.5-22.9-54.7 0.2-3.5 1.3-6.9 2.8-10.2 2.4-5.3 5.9-10.2 10.5-13.8 3.2-2.5 7.2-4.6 8.5-8.4 0.7-2 0.6-4.2 0-6.2-2.8-9.4-14.8-13.4-24.3-10.9-7.8 2.1-14.7 7.5-18.5 14.7l2.1-4.2c-9.3 15-18.2 31.9-16.1 49.4 0.5 4 1.6 8.1 3.9 11.4 1.7 2.5 4.1 4.5 6 6.9 5.3 6.4 7.3 15.2 6.5 23.5-0.8 8.3-4.1 16.2-8.4 23.3-3 5.1-6.6 9.9-8.4 15.6-2.3 7.5-0.8 17 8.3 19.6 3.3 1.1 6.7 0.8 9.8-0.3z" fill="#515151" p-id="24157"></path></svg>