<?xml version="1.0" standalone="no"?><!DOCTYPE svg PUBLIC "-//W3C//DTD SVG 1.1//EN" "http://www.w3.org/Graphics/SVG/1.1/DTD/svg11.dtd"><svg t="1603628934462" class="icon" viewBox="0 0 1024 1024" version="1.1" xmlns="http://www.w3.org/2000/svg" p-id="31826" xmlns:xlink="http://www.w3.org/1999/xlink" width="64" height="64"><defs><style type="text/css"></style></defs><path d="M408.302933 90.180267l-7.645866-2.2528a143.633067 143.633067 0 0 0-62.8736-0.955734c-63.214933 12.629333-108.202667 65.9456-99.805867 130.730667l2.730667 16.1792c6.280533 31.9488 18.6368 61.098667 37.0688 87.381333l8.260266 10.922667-10.513066 5.9392A475.3408 475.3408 0 0 0 42.325333 713.659733c-3.6864 51.063467 0 98.850133 12.151467 144.7936a196.881067 196.881067 0 0 0 190.464 146.773334l78.711467-0.136534 457.181866-0.136533c67.515733-0.068267 122.402133-29.559467 161.450667-84.7872 18.2272-25.8048 28.330667-54.749867 34.133333-90.999467a472.951467 472.951467 0 0 0-9.8304-204.117333l-6.280533-21.162667c-35.703467-111.138133-103.970133-198.656-204.049067-260.778666l-18.295466-10.922667 6.7584-8.055467c12.629333-16.247467 22.391467-33.041067 29.149866-51.2l4.778667-13.653333 6.144-21.845333c9.216-55.296-2.048-92.433067-37.205333-121.378134l-9.284267-7.099733c-34.542933-24.3712-74.001067-30.9248-115.029333-20.411733l-7.850667 2.2528-5.870933-4.232534a177.493333 177.493333 0 0 0-194.56-1.092266l-6.7584 4.7104z m166.570667 55.364266l8.192 6.690134a38.912 38.912 0 0 0 43.144533 7.168c30.583467-12.288 55.296-9.352533 78.097067 9.4208 14.9504 12.288 18.705067 24.7808 13.9264 53.930666l-3.2768 11.195734c-1.365333 4.9152-2.798933 9.216-5.051733 15.223466-6.212267 16.7936-17.6128 33.245867-34.133334 50.312534l-17.339733 16.384-6.7584 8.6016a15.9744 15.9744 0 0 0-0.887467 1.6384l-1.024 2.321066-13.175466 29.0816 63.214933 31.5392 3.754667 2.048c101.307733 57.344 166.570667 141.175467 197.290666 252.177067a404.821333 404.821333 0 0 1 8.328534 174.967467c-4.369067 26.897067-11.195733 46.421333-22.528 62.532266-26.487467 37.4784-60.8256 55.842133-105.813334 55.978667l-536.029866 0.2048a128.6144 128.6144 0 0 1-124.245334-95.914667 369.4592 369.4592 0 0 1-10.103466-122.4704A406.869333 406.869333 0 0 1 336.0768 382.976l64.034133-30.173867-51.677866-52.565333a160.768 160.768 0 0 1-42.734934-91.409067c-3.413333-26.624 15.36-48.878933 45.4656-54.954666 16.384-3.2768 31.3344-1.706667 45.738667 4.642133 13.653333 6.144 27.306667 4.573867 38.638933-2.8672l5.461334-4.232533c36.6592-32.904533 94.549333-34.816 133.9392-5.870934z" fill="#515151" fill-opacity=".65" p-id="31827"></path><path d="M396.288 455.202133c6.5536-7.850667 14.677333-10.0352 24.234667-6.485333 9.557333 3.549867 17.271467 8.055467 23.210666 13.585067l6.007467 7.3728 9.352533 10.376533 52.906667 56.661333 34.2016-34.269866 13.243733-12.834134 28.740267-26.897066 3.208533-2.798934a31.3344 31.3344 0 0 1 22.050134-9.489066c8.123733 0 14.7456 3.549867 19.8656 10.6496 8.3968 10.376533 6.621867 22.254933-5.3248 35.566933l-16.042667 16.110933-9.489067 10.376534c-8.874667 9.8304-17.681067 19.524267-26.487466 29.013333l-16.7936 18.568533-17.339734 18.0224v22.528h71.68c10.24 0 17.749333 2.525867 22.528 7.645867a24.576 24.576 0 0 1 7.168 17.066667 27.170133 27.170133 0 0 1-6.5536 18.432c-3.549867 4.096-8.942933 6.212267-16.247466 6.5536l-5.870934-0.136534-71.68 1.2288-1.092266 40.1408H612.352c20.548267 0 30.856533 8.328533 30.856533 24.849067 0.682667 7.850667-1.297067 13.585067-6.075733 17.066667a27.306667 27.306667 0 0 1-12.9024 5.051733l-5.256533 0.341333h-77.141334v23.620267c0 7.099733-2.798933 13.994667-8.328533 20.6848a23.552 23.552 0 0 1-21.504 8.874667 36.181333 36.181333 0 0 1-22.050133-6.485334c-4.7104-3.413333-7.714133-9.079467-9.147734-16.861866l-0.750933-6.144v-23.688534H405.0944a25.941333 25.941333 0 0 1-18.2272-6.485333 17.749333 17.749333 0 0 1-6.075733-15.9744c0-7.099733 2.389333-12.765867 7.168-17.066667a24.3712 24.3712 0 0 1 12.288-6.144l4.778666-0.4096h75.025067v-41.3696H405.026133a23.415467 23.415467 0 0 1-24.234666-23.620266 26.624 26.624 0 0 1 7.168-17.749334 22.7328 22.7328 0 0 1 12.288-7.7824l4.778666-0.477866h75.025067l1.092267-24.849067-18.363734-19.933867-18.0224-20.2752-26.4192-30.72-16.5888-16.520533a70.178133 70.178133 0 0 1-9.898666-19.524267c-2.935467-8.260267-1.4336-16.725333 4.437333-25.3952z" fill="#515151" fill-opacity=".65" p-id="31828"></path></svg>