<?xml version="1.0" standalone="no"?><!DOCTYPE svg PUBLIC "-//W3C//DTD SVG 1.1//EN" "http://www.w3.org/Graphics/SVG/1.1/DTD/svg11.dtd"><svg t="1603628603807" class="icon" viewBox="0 0 1024 1024" version="1.1" xmlns="http://www.w3.org/2000/svg" p-id="21283" xmlns:xlink="http://www.w3.org/1999/xlink" width="64" height="64"><defs><style type="text/css"></style></defs><path d="M94.042 430.253c0.001-0.125 0.002-0.249 0.008-0.412l-0.019 0.433 0.011-0.021zM933.818 430.718a17.094 17.094 0 0 0-0.011-0.484l-0.049-0.073c0.008 0.163 0.027 0.36 0.06 0.557z" fill="#515151" p-id="21284"></path><path d="M960.124 480.836c-3.022-15.741-17.8-25.505-33.124-26.003h-47v-111.5c-0.601-28.802-25.913-47.71-53.112-48.977-21.848-1.018-43.414 6.868-54.888 25.299v-0.552-23.405c-0.375-26.137-16.79-51.474-43.163-57.556-9.756-2.25-21.522-1.955-31.143 0.614-12.778 3.413-22.997 12.156-30.509 22.728C653.253 281.094 657 309.44 657 332.26v122.574H367.001v-135.73-23.405c-0.375-26.137-16.79-51.474-43.163-57.556-9.756-2.25-21.522-1.955-31.143 0.614-12.778 3.413-22.997 12.156-30.509 22.728-11.381 16.019-10.964 37.869-10.43 57.774-9.532-14.905-27.255-24.035-45.866-24.903-24.697-1.151-49.044 9.066-58.848 33.043-3.841 9.394-3.04 19.821-3.04 29.76v97.674H98.823c-0.57 0-1.129 0.046-1.683 0.115-14.537 1.095-27.274 10.138-31.2 24.632-1.453 5.359-0.94 11.476-0.94 16.981v40.331c0 12.184 6.759 23.249 17.528 28.928 6.753 3.562 13.94 4.013 21.343 4.013H144v111.5c0.601 28.802 25.913 47.71 53.112 48.977 21.848 1.018 43.414-6.868 54.888-25.299v23.957c0.375 26.137 16.79 51.474 43.163 57.556 9.756 2.25 21.522 1.955 31.143-0.614 12.778-3.413 22.997-12.156 30.509-22.728C370.747 743.573 367 715.227 367 692.407V569.833h289.999v159.135c0.375 26.137 16.79 51.474 43.163 57.556 9.756 2.25 21.522 1.955 31.143-0.614 12.778-3.413 22.997-12.156 30.509-22.728 11.381-16.019 10.964-37.869 10.43-57.774 9.532 14.905 27.255 24.035 45.866 24.903 24.697 1.151 49.044-9.066 58.848-33.043 3.841-9.394 3.04-19.821 3.04-29.76v-43.452-54.222h20.468c13.326 0 29.167 2.1 41.621-3.474 11.353-5.082 18.732-16.875 18.732-29.246v-16.001-23.746c0.002-5.487 0.345-11.11-0.695-16.531z m-27.306 5.882a4.9 4.9 0 0 1-0.06-0.557l0.049 0.073c0.005 0.129 0.009 0.286 0.011 0.484z m-839.776-0.465a0.225 0.225 0 0 1-0.012 0.021l0.019-0.433c-0.005 0.163-0.006 0.287-0.007 0.412z m30.895 55.58H99.018c-0.527 0-0.853 0.012-1.065 0.029a9.546 9.546 0 0 0-0.898-0.24 14.95 14.95 0 0 0-0.8-0.166 13.177 13.177 0 0 0-0.752-0.423 24.995 24.995 0 0 0-0.919-0.59c-0.265-0.249-0.512-0.516-0.764-0.778 0.655 0.636 0.098-0.155-0.43-0.901 0.226 0.025-0.317-1.647-0.391-0.961-0.002-0.306 0.002-0.613 0.002-0.911v-6.512-22.988-18.686-1.454c0-0.297 0.012-0.576 0.025-0.867l0.014-0.023c0.006 1.719 0.53-0.374 0.32-0.493 0.235-0.36 0.477-0.73 0.612-0.959 0.373-0.324 0.819-0.703 1.066-0.931 0.613-0.3 1.449-0.696 1.61-0.812 0.353-0.102 0.709-0.192 1.067-0.275 0.236-0.008 0.593-0.026 1.106-0.058H144v59l-20.063-0.001zM231 624.055v57.236c0 2.75-0.927 6.024-2.304 8.523-0.225 0.408-2.107 2.968-1.99 2.93-1.144 1.297-2.411 2.481-3.715 3.614l-0.575 0.41c-1.088 0.764-2.247 1.419-3.402 2.073-0.572 0.312-1.159 0.596-1.744 0.881 0.746-0.412-2.289 0.875-2.426 0.921-6.325 2.14-10.202 1.783-17.733 1.667-3.025-0.047-5.702-0.566-10.269-2.11l-0.701-0.266c-1.136-0.525-2.232-1.134-3.32-1.75a40.937 40.937 0 0 1-2.239-1.415 47.512 47.512 0 0 0-0.522-0.337 22.282 22.282 0 0 0-0.756-0.675c-1.256-1.083-2.38-2.306-3.476-3.547l-0.197-0.277c-0.721-1.021-1.327-2.117-1.929-3.21-0.19-0.399-0.327-0.681-0.42-0.865a40.992 40.992 0 0 1-0.846-2.737c-0.114-0.449-0.193-0.906-0.286-1.36 0.198 0.709-0.142-2.024-0.15-2.426v-111.5-14-14-59-14-14-54.222-43.452-11.862-1.922c0-2.75 0.927-6.024 2.304-8.523 0.225-0.408 2.107-2.968 1.99-2.93 1.144-1.297 2.411-2.481 3.715-3.614l0.574-0.41c1.088-0.764 2.247-1.419 3.402-2.073 0.572-0.312 1.159-0.596 1.744-0.881-0.746 0.412 2.289-0.875 2.426-0.921 6.325-2.14 10.202-1.783 17.733-1.667 3.025 0.047 5.702 0.566 10.269 2.11l0.701 0.266c1.136 0.525 2.232 1.134 3.32 1.75 0.762 0.448 1.508 0.919 2.239 1.415 0.205 0.134 0.374 0.243 0.522 0.337 0.161 0.153 0.398 0.366 0.756 0.675 1.256 1.083 2.38 2.306 3.477 3.547l0.197 0.277c0.721 1.021 1.327 2.117 1.929 3.21 0.19 0.399 0.327 0.681 0.42 0.866 0.318 0.901 0.592 1.817 0.846 2.737 0.114 0.449 0.193 0.906 0.286 1.36-0.198-0.71 0.142 2.024 0.15 2.426v280.721z m108 81.508V728.96c0 1.632-0.109 3.252-0.257 4.873-0.036 0.148-0.112 0.573-0.234 1.31-0.256 1.358-0.629 2.691-1 4.02a47.527 47.527 0 0 1-0.846 2.593c-0.089 0.26-0.162 0.477-0.221 0.658a26.92 26.92 0 0 0-0.467 0.947c-0.946 1.988-2.116 3.859-3.336 5.687l-0.395 0.548c-0.746 0.901-1.55 1.753-2.36 2.596-0.6 0.606-1.218 1.194-1.854 1.763-0.271 0.25-0.456 0.426-0.606 0.573-0.15 0.104-0.327 0.228-0.547 0.386-1.693 1.213-3.529 2.208-5.389 3.136l-0.214 0.082c-1.186 0.45-2.414 0.778-3.638 1.105-0.468 0.117-0.943 0.203-1.416 0.301 0.496-0.143-2.154 0.253-2.506 0.271-1.238 0.065-2.494 0.023-3.733 0.023H306.6a37.49 37.49 0 0 1-2.618-0.092c-0.17-0.009-0.316-0.016-0.45-0.021-0.21-0.051-0.507-0.114-0.925-0.196-1.739-0.338-3.429-0.879-5.092-1.484a23.178 23.178 0 0 0-1.067-0.519c-1.131-0.563-2.204-1.234-3.274-1.903-0.473-0.306-0.929-0.636-1.388-0.962 0.811 0.522-1.565-1.391-1.756-1.568a43.1 43.1 0 0 1-1.805-1.823c-0.125-0.13-1.62-1.953-1.679-1.953-1.074-1.524-2.02-3.135-2.916-4.768-0.296-0.558-0.566-1.128-0.838-1.697 0.415 0.774-0.842-2.218-0.897-2.379-0.743-2.171-1.233-4.418-1.659-6.668l-0.052-0.513c-0.145-1.435-0.165-2.88-0.186-4.321v-149.73-9.405-14-14-59-14-14V319.1v-20.199-3.198c0-1.632 0.109-3.252 0.257-4.874 0.036-0.148 0.112-0.573 0.234-1.31 0.256-1.358 0.629-2.691 1-4.02 0.257-0.872 0.539-1.736 0.846-2.592 0.089-0.26 0.162-0.477 0.221-0.658 0.108-0.205 0.258-0.507 0.467-0.947 0.946-1.988 2.116-3.859 3.336-5.687l0.395-0.549c0.746-0.901 1.549-1.753 2.359-2.595 0.6-0.606 1.218-1.194 1.854-1.763 0.271-0.25 0.456-0.426 0.606-0.573 0.15-0.104 0.327-0.228 0.547-0.386 1.693-1.213 3.529-2.208 5.389-3.136l0.214-0.082c1.186-0.45 2.414-0.778 3.638-1.105 0.468-0.117 0.943-0.203 1.415-0.301-0.495 0.143 2.155-0.253 2.506-0.272 1.238-0.065 2.494-0.023 3.733-0.023h3.381c0.874 0 1.746 0.031 2.618 0.092 0.17 0.009 0.316 0.016 0.45 0.021 0.21 0.051 0.507 0.114 0.925 0.196 1.739 0.338 3.429 0.879 5.092 1.484 0.129 0.073 0.477 0.242 1.067 0.518 1.131 0.563 2.204 1.234 3.274 1.903 0.473 0.306 0.929 0.636 1.388 0.962-0.811-0.522 1.565 1.391 1.756 1.568 0.62 0.589 1.221 1.197 1.805 1.823 0.125 0.13 1.62 1.953 1.679 1.953 1.074 1.524 2.02 3.135 2.916 4.768 0.296 0.558 0.566 1.128 0.838 1.697-0.415-0.774 0.842 2.218 0.897 2.379 0.743 2.171 1.233 4.418 1.659 6.668l0.052 0.513c0.145 1.435 0.165 2.88 0.186 4.321v274.135c0.002 45.246 0.002 90.489 0.002 135.732z m211.166-163.73H367.001v-59H657v59H550.166zM744 705.563V728.96c0 1.632-0.109 3.252-0.257 4.873-0.036 0.148-0.112 0.573-0.234 1.31-0.256 1.358-0.629 2.691-1 4.02a47.527 47.527 0 0 1-0.846 2.593c-0.089 0.26-0.162 0.477-0.221 0.658a26.92 26.92 0 0 0-0.467 0.947c-0.946 1.988-2.116 3.859-3.336 5.687l-0.395 0.548c-0.746 0.901-1.55 1.753-2.36 2.596-0.6 0.606-1.218 1.194-1.854 1.763-0.271 0.25-0.456 0.426-0.606 0.573-0.15 0.104-0.327 0.228-0.547 0.386-1.693 1.213-3.529 2.208-5.389 3.136l-0.214 0.082c-1.186 0.45-2.414 0.778-3.638 1.105-0.468 0.117-0.943 0.203-1.416 0.301 0.496-0.143-2.154 0.253-2.506 0.271-1.238 0.065-2.494 0.023-3.733 0.023H711.6a37.49 37.49 0 0 1-2.618-0.092c-0.17-0.009-0.316-0.016-0.45-0.021-0.21-0.051-0.507-0.114-0.925-0.196-1.739-0.338-3.429-0.879-5.092-1.484a23.178 23.178 0 0 0-1.067-0.519c-1.131-0.563-2.204-1.234-3.274-1.903-0.473-0.306-0.929-0.636-1.388-0.962 0.811 0.522-1.565-1.391-1.756-1.568a43.1 43.1 0 0 1-1.805-1.823c-0.125-0.13-1.62-1.953-1.679-1.953-1.074-1.524-2.02-3.135-2.916-4.768-0.296-0.558-0.566-1.128-0.838-1.697 0.415 0.774-0.842-2.218-0.897-2.379-0.743-2.171-1.233-4.418-1.659-6.668l-0.052-0.513c-0.145-1.435-0.165-2.88-0.186-4.321v-149.73-9.405-14-14-59-14-14V319.1v-20.199-3.198c0-1.632 0.109-3.252 0.257-4.874 0.036-0.148 0.112-0.573 0.234-1.31 0.256-1.358 0.629-2.691 1-4.02 0.257-0.872 0.539-1.736 0.846-2.592 0.089-0.26 0.162-0.477 0.221-0.658 0.108-0.205 0.258-0.507 0.467-0.947 0.946-1.988 2.116-3.859 3.336-5.687l0.395-0.549c0.746-0.901 1.549-1.753 2.359-2.595 0.6-0.606 1.218-1.194 1.854-1.763 0.271-0.25 0.456-0.426 0.606-0.573 0.15-0.104 0.327-0.228 0.547-0.386 1.693-1.213 3.529-2.208 5.389-3.136l0.214-0.082c1.186-0.45 2.414-0.778 3.638-1.105 0.468-0.117 0.943-0.203 1.415-0.301-0.495 0.143 2.155-0.253 2.506-0.272 1.238-0.065 2.494-0.023 3.733-0.023h3.381c0.874 0 1.746 0.031 2.618 0.092 0.17 0.009 0.316 0.016 0.45 0.021 0.21 0.051 0.507 0.114 0.925 0.196 1.739 0.338 3.429 0.879 5.092 1.484 0.129 0.073 0.477 0.242 1.067 0.518 1.131 0.563 2.204 1.234 3.274 1.903 0.473 0.306 0.929 0.636 1.388 0.962-0.811-0.522 1.565 1.391 1.756 1.568 0.62 0.589 1.221 1.197 1.805 1.823 0.125 0.13 1.62 1.953 1.679 1.953 1.074 1.524 2.02 3.135 2.916 4.768 0.296 0.558 0.566 1.128 0.838 1.697-0.415-0.774 0.842 2.218 0.897 2.379 0.743 2.171 1.233 4.418 1.659 6.668l0.052 0.513c0.145 1.435 0.165 2.88 0.186 4.321v274.135c0.002 45.246 0.002 90.489 0.002 135.732z m108-81.508v57.236c0 2.75-0.927 6.024-2.304 8.523-0.225 0.408-2.107 2.968-1.99 2.93-1.144 1.297-2.411 2.481-3.715 3.614l-0.575 0.41c-1.088 0.764-2.247 1.419-3.402 2.073-0.572 0.312-1.159 0.596-1.744 0.881 0.746-0.412-2.289 0.875-2.426 0.921-6.325 2.14-10.202 1.783-17.733 1.667-3.025-0.047-5.702-0.566-10.269-2.11l-0.701-0.266c-1.136-0.525-2.232-1.134-3.32-1.75a40.937 40.937 0 0 1-2.239-1.415 47.512 47.512 0 0 0-0.522-0.337 22.282 22.282 0 0 0-0.756-0.675c-1.256-1.083-2.38-2.306-3.476-3.547l-0.197-0.277c-0.721-1.021-1.327-2.117-1.929-3.21-0.19-0.399-0.327-0.681-0.42-0.865a40.992 40.992 0 0 1-0.846-2.737c-0.114-0.449-0.193-0.906-0.286-1.36 0.198 0.709-0.142-2.024-0.15-2.426v-111.5-14-14-59-14-14-54.222-43.452-11.862-1.922c0-2.75 0.927-6.024 2.304-8.523 0.225-0.408 2.107-2.968 1.99-2.93 1.144-1.297 2.411-2.481 3.715-3.614l0.574-0.41c1.088-0.764 2.247-1.419 3.402-2.073 0.572-0.312 1.159-0.596 1.744-0.881-0.746 0.412 2.289-0.875 2.426-0.921 6.325-2.14 10.202-1.783 17.733-1.667 3.025 0.047 5.702 0.566 10.269 2.11l0.701 0.266c1.136 0.525 2.232 1.134 3.32 1.75 0.762 0.448 1.508 0.919 2.239 1.415 0.205 0.134 0.374 0.243 0.522 0.337 0.161 0.153 0.398 0.366 0.756 0.675 1.256 1.083 2.38 2.306 3.477 3.547l0.197 0.277c0.721 1.021 1.327 2.117 1.929 3.21 0.19 0.399 0.327 0.681 0.42 0.866 0.318 0.901 0.592 1.817 0.846 2.737 0.114 0.449 0.193 0.906 0.286 1.36-0.198-0.71 0.142 2.024 0.15 2.426v280.721z m80.551-85.188c0.703-2.596-1.147 0.898-0.748 0.93-0.364 0.315-0.783 0.672-1.021 0.891-0.487 0.238-1.109 0.535-1.428 0.706-0.767 0.157-1.869 0.371-1.894 0.436-0.182 0.002-0.364 0.004-0.545 0.004H879.999v-59h47c0.422 0.014 0.738 0.018 0.971 0.015a21.01 21.01 0 0 0 1.595 0.362c0.176 0.108 0.407 0.241 0.752 0.423 0.291 0.153 0.501 0.256 0.679 0.339 0.137 0.144 0.314 0.319 0.579 0.564 0.179 0.166 0.327 0.298 0.454 0.407 0.091 0.178 0.222 0.411 0.428 0.745 0.079 0.128 0.139 0.22 0.204 0.321 0.017 0.158 0.068 0.409 0.157 0.759l0.002 0.407v50.343c0 0.174 0.002 0.322 0.005 0.458-0.072 0.192-0.162 0.475-0.274 0.89z" fill="#515151" p-id="21285"></path></svg>