<?xml version="1.0" standalone="no"?><!DOCTYPE svg PUBLIC "-//W3C//DTD SVG 1.1//EN" "http://www.w3.org/Graphics/SVG/1.1/DTD/svg11.dtd"><svg t="1603334389807" class="icon" viewBox="0 0 1024 1024" version="1.1" xmlns="http://www.w3.org/2000/svg" p-id="1985" xmlns:xlink="http://www.w3.org/1999/xlink" width="64" height="64"><defs><style type="text/css"></style></defs><path d="M779.8 927.9H245.7c-64.6 0-125.4-25.3-171.3-71.2C28.5 810.8 3.2 749.9 3.2 685.4V242.5c0-64.6 25.3-125.4 71.2-171.3C120.3 25.3 181.2 0 245.7 0h534.1c64.6 0 125.4 25.3 171.3 71.2 45.9 45.9 71.2 106.7 71.2 171.3v442.9c0 64.6-25.3 125.4-71.2 171.3-45.9 45.9-106.8 71.2-171.3 71.2zM245.7 86.3c-86.2 0-156.2 70.1-156.2 156.2v442.9c0 86.2 70.1 156.2 156.2 156.2h534.1c86.2 0 156.2-70.1 156.2-156.2V242.5c0-86.2-70.1-156.2-156.2-156.2H245.7z" fill="#515151" p-id="1986"></path><path d="M697.3 221.8H329.4c-6.6 0-12-5.4-12-12v-62.3c0-6.6 5.4-12 12-12h367.9c6.6 0 12 5.4 12 12v62.3c0 6.6-5.4 12-12 12zM947.4 670.3H75.6c-6.6 0-12-5.4-12-12V596c0-6.6 5.4-12 12-12h871.8c6.6 0 12 5.4 12 12v62.3c0 6.6-5.4 12-12 12zM375.1 812.1H259.8c-6.6 0-12-5.4-12-12v-62.3c0-6.6 5.4-12 12-12H375c6.6 0 12 5.4 12 12v62.3c0.1 6.6-5.3 12-11.9 12zM274.3 1012V896.8c0-6.6 5.4-12 12-12h62.3c6.6 0 12 5.4 12 12V1012c0 6.6-5.4 12-12 12h-62.3c-6.6 0-12-5.4-12-12zM666.2 1012V896.8c0-6.6 5.4-12 12-12h62.3c6.6 0 12 5.4 12 12V1012c0 6.6-5.4 12-12 12h-62.3c-6.6 0-12-5.4-12-12zM766.9 812.1H651.7c-6.6 0-12-5.4-12-12v-62.3c0-6.6 5.4-12 12-12h115.2c6.6 0 12 5.4 12 12v62.3c0 6.6-5.4 12-12 12z" fill="#515151" p-id="1987"></path></svg>