<?xml version="1.0" standalone="no"?><!DOCTYPE svg PUBLIC "-//W3C//DTD SVG 1.1//EN" "http://www.w3.org/Graphics/SVG/1.1/DTD/svg11.dtd"><svg t="1603629260179" class="icon" viewBox="0 0 1024 1024" version="1.1" xmlns="http://www.w3.org/2000/svg" p-id="41681" xmlns:xlink="http://www.w3.org/1999/xlink" width="64" height="64"><defs><style type="text/css"></style></defs><path d="M844.815274 868.928686 844.815274 899.688818C844.815274 942.508843 810.754316 977.223145 768.740189 977.223145 726.726063 977.223145 692.665104 942.508843 692.665104 899.688818L692.665104 880.305236 350.329328 880.305236 350.329328 899.688818C350.329328 942.508843 316.268369 977.223145 274.254243 977.223145 232.23801 977.223145 198.179158 942.508843 198.179158 899.688818L198.179158 875.222531C132.590764 857.983383 84.06653 797.465072 84.06653 725.236582L84.06653 201.880951C84.06653 116.238753 152.18634 46.812297 236.216702 46.812297L787.758962 46.812297C871.789321 46.812297 939.909132 116.238753 939.909132 201.880951L939.909132 725.23551C939.909132 790.296933 900.553779 845.912761 844.815274 868.928686L844.815274 868.928686ZM901.871588 201.880951C901.871588 137.649839 850.781205 85.579462 787.758962 85.579462L236.216702 85.579462C173.194456 85.579462 122.104074 137.649839 122.104074 201.880951L122.104074 725.23551C122.104074 789.466621 173.194457 841.537 236.216702 841.537L236.216702 899.687744C236.216702 921.098829 253.246127 938.454907 274.254243 938.454907 295.262359 938.454907 312.291784 921.098829 312.291784 899.687744L312.291784 841.537 730.7037 841.537 730.7037 899.687744C730.7037 921.098829 747.733127 938.454907 768.741243 938.454907 789.749357 938.454907 806.778785 921.098829 806.778785 899.687744L806.778785 839.583515C860.698459 830.31278 901.87264 782.828422 901.87264 725.236582L901.872642 201.880951 901.871588 201.880951ZM787.75896 531.400767 255.235472 531.400767C234.227356 531.400767 217.197929 514.044688 217.197929 492.633605L217.197929 260.031695C217.197929 238.620609 234.227356 221.264533 255.235472 221.264533L787.75896 221.264533C808.767076 221.264533 825.796503 238.620609 825.796503 260.031695L825.796503 492.633602C825.796503 514.045761 808.767078 531.400767 787.75896 531.400767L787.75896 531.400767ZM787.75896 260.031695 255.235472 260.031695 255.235472 492.633602 787.75896 492.633602 787.75896 260.031695 787.75896 260.031695ZM340.819416 589.551511C388.086886 589.551511 426.403361 628.6051 426.403361 676.777093 426.403361 724.951231 388.085834 764.002674 340.819416 764.002674 293.552996 764.002674 255.235472 724.950158 255.235472 676.777093 255.235472 628.606173 293.551944 589.551511 340.819416 589.551511L340.819416 589.551511ZM340.819416 725.236582C367.078772 725.236582 388.365817 703.540145 388.365817 676.778166 388.365817 650.015113 367.07772 628.319746 340.819416 628.319746 314.560061 628.319746 293.273014 650.016184 293.273014 676.778166 293.273014 703.540145 314.560061 725.236582 340.819416 725.236582L340.819416 725.236582ZM702.175016 589.551511C749.442488 589.551511 787.75896 628.6051 787.75896 676.777093 787.75896 724.951231 749.441436 764.002674 702.175016 764.002674 654.908598 764.002674 616.591071 724.950158 616.591071 676.777093 616.591071 628.606173 654.907546 589.551511 702.175016 589.551511L702.175016 589.551511ZM702.175016 725.236582C728.434371 725.236582 749.721418 703.540145 749.721418 676.778166 749.721418 650.015113 728.43332 628.319746 702.175016 628.319746 675.916712 628.319746 654.628615 650.016184 654.628615 676.778166 654.628615 703.540145 675.91566 725.236582 702.175016 725.236582L702.175016 725.236582Z" p-id="41682" fill="#515151"></path><path d="M982.204509 194.643782l41.795491 0 0 169.255564-41.795491 0 0-169.255564Z" p-id="41683" fill="#515151"></path><path d="M0 194.643782l41.795491 0 0 169.255564-41.795491 0 0-169.255564Z" p-id="41684" fill="#515151"></path></svg>