<?xml version="1.0" standalone="no"?><!DOCTYPE svg PUBLIC "-//W3C//DTD SVG 1.1//EN" "http://www.w3.org/Graphics/SVG/1.1/DTD/svg11.dtd"><svg t="1603628564785" class="icon" viewBox="0 0 1024 1024" version="1.1" xmlns="http://www.w3.org/2000/svg" p-id="20055" xmlns:xlink="http://www.w3.org/1999/xlink" width="64" height="64"><defs><style type="text/css"></style></defs><path d="M624.2 795.1h-320c-8 0-14.5-6.5-14.5-14.5v-537c0-8 6.5-14.5 14.5-14.5h320c8 0 14.5 6.5 14.5 14.5v537c0 8-6.5 14.5-14.5 14.5z m-305.5-29h291v-508h-291v508z" fill="#515151" p-id="20056"></path><path d="M675.7 795.1h-423c-8 0-14.5-6.5-14.5-14.5s6.5-14.5 14.5-14.5h423c8 0 14.5 6.5 14.5 14.5s-6.5 14.5-14.5 14.5zM734.8 762.1c-28.2 0-51.2-23-51.2-51.2V447.6c0-1.6-1.3-2.8-2.8-2.8h-56.7c-8 0-14.5-6.5-14.5-14.5s6.5-14.5 14.5-14.5h56.7c17.6 0 31.8 14.3 31.8 31.8V711c0 12.2 9.9 22.2 22.2 22.2s22.2-10 22.2-22.2V361c0-2.9-1.2-5.7-3.3-7.7l-66-63.9c-5.8-5.6-5.9-14.8-0.3-20.5 5.6-5.8 14.8-5.9 20.5-0.3l66 63.9c7.7 7.4 12.1 17.8 12.1 28.5v350c0 28.2-22.9 51.1-51.2 51.1zM546.5 354.8H381.8c-8 0-14.5-6.5-14.5-14.5s6.5-14.5 14.5-14.5h164.7c8 0 14.5 6.5 14.5 14.5s-6.5 14.5-14.5 14.5z" fill="#515151" p-id="20057"></path><path d="M700.1 391.9h56.2c3.8 0 6.9-3.1 6.9-6.9v-56.2c0-6.1-7.4-9.2-11.8-4.9l-56.2 56.2c-4.3 4.4-1.3 11.8 4.9 11.8z" fill="#515151" p-id="20058"></path></svg>