<?xml version="1.0" standalone="no"?><!DOCTYPE svg PUBLIC "-//W3C//DTD SVG 1.1//EN" "http://www.w3.org/Graphics/SVG/1.1/DTD/svg11.dtd"><svg t="1603335008520" class="icon" viewBox="0 0 1024 1024" version="1.1" xmlns="http://www.w3.org/2000/svg" p-id="12401" xmlns:xlink="http://www.w3.org/1999/xlink" width="64" height="64"><defs><style type="text/css"></style></defs><path d="M371.82965 493.504247h-63.998193l8.771032 126.262411 25.301612 252.972766s-21.681935 20.713798-67.885192 23.105241c-46.203257 2.391443-70.023763-25.496684-70.023763-25.496684L235.531849 530.690825l0.628566 0.01445 1.965174-37.201028h-57.987074l-41.629893 390.383203s29.492055 72.501905 132.6998 72.501905 136.174978-69.315723 136.174978-69.315723l-35.55375-393.569385z" fill="#515151" p-id="12402"></path><path d="M274.66915 72.032286C162.56755 72.032286 71.685491 182.602207 71.685491 318.993932c0 118.958033 69.1351 218.27878 161.187593 241.723591l3.316231-67.769593c-57.503006-21.862558-99.537493-91.467276-99.537493-173.953998 0-100.014337 61.794598-181.084977 138.024553-181.084977S412.693704 218.98682 412.693704 318.993932c0 84.697542-44.324782 155.81949-104.197556 175.608501l4.81901 66.88093c93.627522-21.956481 164.344876-122.173115 164.344876-242.496656C477.660034 182.602207 386.777975 72.032286 274.66915 72.032286z" fill="#515151" p-id="12403"></path><path d="M840.725877 501.321593h-63.998194l8.771033 124.123839 25.301611 248.695623s-21.681935 20.367003-67.885191 22.715096-70.023763-25.06319-70.023764-25.06319L704.428076 537.872379l0.628566 0.01445 1.965174-36.572461h-57.987074l-41.629893 383.786865s29.492055 71.273671 132.699799 71.273672 136.174978-68.145288 136.174978-68.145289l-35.553749-386.908023zM687.521802 382.573082c19.868484 0 36.124517-16.256033 36.124516-36.124517v-202.297294c0-19.868484-16.256033-36.124517-36.124516-36.124516s-36.124517 16.256033-36.124517 36.124516v202.297294c0 19.868484 16.256033 36.124517 36.124517 36.124517zM789.826433 382.573082c19.868484 0 36.124517-16.256033 36.124517-36.124517v-202.297294c0-19.868484-16.256033-36.124517-36.124517-36.124516s-36.124517 16.256033-36.124517 36.124516v202.297294c0 19.868484 16.256033 36.124517 36.124517 36.124517z" fill="#515151" p-id="12404"></path><path d="M606.061017 364.34465c0-5.108007 0.281771-10.150989 0.830863-15.114497V144.158496c0-19.868484-16.256033-36.124517-36.124516-36.124516s-36.124517 16.256033-36.124517 36.124516v202.297294c0 1.806226 0.137273 3.583552 0.390145 5.317529-0.260097 4.161544-0.390145 8.351988-0.390145 12.578556 0 98.627155 72.068411 180.788756 167.523834 198.894364l6.502413-67.184376c-58.955211-14.811052-102.608077-68.166963-102.608077-131.717213zM949.063303 144.151271c0-19.868484-16.256033-36.124517-36.124517-36.124516s-36.124517 16.256033-36.124517 36.124516v202.297294c0 2.644315 0.288996 5.21638 0.830864 7.701747v10.194338c0 63.210679-43.183247 116.328169-101.661615 131.464342l5.404228 67.451697c95.527672-18.047809 167.668332-100.245534 167.668332-198.923263 0-4.226568-0.130048-8.417012-0.390145-12.578557 0.260097-1.733977 0.390145-3.511303 0.390145-5.317529V144.151271z" fill="#515151" p-id="12405"></path></svg>