<?xml version="1.0" standalone="no"?><!DOCTYPE svg PUBLIC "-//W3C//DTD SVG 1.1//EN" "http://www.w3.org/Graphics/SVG/1.1/DTD/svg11.dtd"><svg t="1603628437572" class="icon" viewBox="0 0 1024 1024" version="1.1" xmlns="http://www.w3.org/2000/svg" p-id="17140" xmlns:xlink="http://www.w3.org/1999/xlink" width="64" height="64"><defs><style type="text/css"></style></defs><path d="M341.333333 469.333333a21.333333 21.333333 0 0 0-21.333333 21.333334v469.333333a21.333333 21.333333 0 0 0 21.333333 21.333333h341.333334a21.333333 21.333333 0 0 0 21.333333-21.333333V490.666667a21.333333 21.333333 0 0 0-21.333333-21.333334H341.333333z m0-42.666666h341.333334a64 64 0 0 1 64 64v469.333333a64 64 0 0 1-64 64H341.333333a64 64 0 0 1-64-64V490.666667a64 64 0 0 1 64-64zM597.333333 254.634667V42.666667h-85.333333a85.333333 85.333333 0 0 0-85.333333 85.333333v126.634667h170.666666zM512 0h106.666667a21.333333 21.333333 0 0 1 21.333333 21.333333v275.968H384V128a128 128 0 0 1 128-128z" fill="#515151" p-id="17141"></path><path d="M384 426.666667h256v-106.666667a21.333333 21.333333 0 0 0-21.333333-21.333333H405.333333a21.333333 21.333333 0 0 0-21.333333 21.333333v106.666667z m21.333333-170.666667h213.333334a64 64 0 0 1 64 64v149.333333H341.333333v-149.333333a64 64 0 0 1 64-64z" fill="#515151" p-id="17142"></path></svg>