<?xml version="1.0" standalone="no"?><!DOCTYPE svg PUBLIC "-//W3C//DTD SVG 1.1//EN" "http://www.w3.org/Graphics/SVG/1.1/DTD/svg11.dtd"><svg t="1603626116306" class="icon" viewBox="0 0 1024 1024" version="1.1" xmlns="http://www.w3.org/2000/svg" p-id="12432" xmlns:xlink="http://www.w3.org/1999/xlink" width="64" height="64"><defs><style type="text/css"></style></defs><path d="M380.529778 230.855111l15.644444 54.670222C281.486222 318.407111 199.111111 410.965333 199.111111 502.641778c0 34.076444 7.253333 45.141333 25.685333 49.607111 19.968 4.835556 35.953778 3.726222 117.447112-6.087111 51.086222-6.144 86.044444-8.988444 125.070222-8.988445 39.822222 0 75.747556 3.128889 133.831111 10.353778 87.665778 10.922667 110.307556 12.572444 135.765333 7.395556 25.514667-5.12 35.271111-17.578667 35.271111-52.280889 0-97.507556-83.342222-188.643556-202.154666-219.079111l14.108444-55.125334c142.392889 36.494222 244.906667 148.650667 244.906667 274.204445 0 61.269333-28.273778 97.422222-80.867556 108.088889-34.389333 6.940444-57.912889 5.205333-154.055111-6.741334-55.893333-6.940444-89.969778-9.927111-126.805333-9.927111-36.266667 0-69.262222 2.673778-118.272 8.590222-91.904 11.064889-107.633778 12.145778-137.642667 4.892445C165.262222 596.366222 142.222222 561.208889 142.222222 502.641778c0-119.125333 100.750222-232.391111 238.307556-271.786667z" fill="#515151" p-id="12433"></path><path d="M483.555556 341.333333a113.777778 113.777778 0 1 1 0-227.555555 113.777778 113.777778 0 0 1 0 227.555555z m0-56.888889a56.888889 56.888889 0 1 0 0-113.777777 56.888889 56.888889 0 0 0 0 113.777777zM231.594667 597.333333l30.634666 229.660445a28.444444 28.444444 0 0 0 28.188445 24.689778h380.615111a28.444444 28.444444 0 0 0 28.273778-25.201778L725.703111 597.333333H231.623111z m557.909333-56.888889l-33.678222 292.551112a85.333333 85.333333 0 0 1-84.764445 75.576888H290.417778a85.333333 85.333333 0 0 1-84.565334-74.040888L166.599111 540.444444h622.904889z" fill="#515151" p-id="12434"></path><path d="M270.307556 598.869333l28.273777-3.072 29.866667 273.948445-28.273778 3.100444zM384 597.333333h28.444444v269.312h-28.444444zM469.333333 597.333333h28.444445v267.605334h-28.444445zM570.993778 596.48l28.416 1.706667-16.327111 278.186666-28.387556-1.649777zM669.297778 595.768889l28.273778 3.128889-29.212445 265.585778-28.273778-3.128889zM370.887111 330.012444a14.222222 14.222222 0 0 1 17.237333 22.641778c-37.12 28.273778-57.856 49.834667-61.639111 62.122667a14.222222 14.222222 0 1 1-27.192889-8.334222c6.144-19.968 29.809778-44.572444 71.594667-76.430223zM463.018667 392.817778a14.222222 14.222222 0 0 1 26.339555 10.808889c-13.169778 32.199111-20.024889 52.906667-20.024889 58.225777a14.222222 14.222222 0 1 1-28.444444 0c0-10.723556 7.196444-32.455111 22.129778-69.006222zM586.296889 378.766222a14.222222 14.222222 0 0 1 22.072889-17.976889c32.256 39.594667 48.64 69.831111 48.64 92.842667a14.222222 14.222222 0 1 1-28.444445 0c0-14.421333-13.909333-40.078222-42.268444-74.865778z" fill="#515151" p-id="12435"></path></svg>