<?xml version="1.0" standalone="no"?><!DOCTYPE svg PUBLIC "-//W3C//DTD SVG 1.1//EN" "http://www.w3.org/Graphics/SVG/1.1/DTD/svg11.dtd"><svg t="1603625901543" class="icon" viewBox="0 0 1024 1024" version="1.1" xmlns="http://www.w3.org/2000/svg" p-id="5624" xmlns:xlink="http://www.w3.org/1999/xlink" width="64" height="64"><defs><style type="text/css"></style></defs><path d="M710.162286 226.550857l-13.001143-30.244571c61.403429-26.386286 61.577143-78.482286 61.549714-80.685715 0-21.686857-6.281143-38.326857-19.2-51.172571-27.529143-27.373714-75.931429-27.648-77.211428-27.648h-0.018286c-37.659429 0-67.510857 11.812571-88.868572 35.117714-48.420571 52.836571-40.777143 147.410286-40.685714 148.352l-32.786286 2.861715c-0.393143-4.461714-8.886857-110.061714 49.216-173.458286C576.996571 19.291429 615.012571 3.885714 662.144 3.885714c2.413714-0.054857 62.747429-0.219429 100.406857 37.056 19.282286 19.090286 29.065143 44.114286 29.065143 74.377143 0.082286 2.688 0.969143 75.812571-81.453714 111.232z" fill="#515151" p-id="5625"></path><path d="M318.290286 226.313143c-66.221714-24.256-80.859429-83.392-79.350857-111.268572C238.921143 28.873143 321.097143 4.964571 364.562286 4.498286c52.754286 0 93.668571 16.704 121.782857 49.664 54.848 64.274286 39.323429 166.427429 38.637714 170.742857l-32.502857-5.174857 16.246857 2.587428-16.256-2.569143c0.146286-0.914286 13.76-91.702857-31.241143-144.310857-21.577143-25.225143-54.043429-38.016-96.484571-38.016-3.584 0.054857-92.909714 2.340571-92.909714 78.528-0.109714 3.099429-1.700571 57.691429 57.782857 79.469715l-11.328 30.893714z" fill="#515151" p-id="5626"></path><path d="M851.328 542.820571H181.129143c-77.942857 0-141.348571-63.414857-141.348572-141.348571v-65.792c0-77.942857 63.405714-141.348571 141.348572-141.348571h670.208c77.942857 0 141.357714 63.414857 141.357714 141.348571v65.792c-0.009143 77.942857-63.414857 141.348571-141.366857 141.348571zM181.129143 227.236571c-59.794286 0-108.434286 48.649143-108.434286 108.443429v65.792c0 59.794286 48.649143 108.443429 108.434286 108.443429h670.208c59.794286 0 108.443429-48.649143 108.443428-108.443429v-65.792c0-59.794286-48.649143-108.443429-108.443428-108.443429H181.129143z" fill="#515151" p-id="5627"></path><path d="M211.748571 1021.577143c-23.579429 0-42.093714-6.72-55.012571-19.986286-17.28-17.728-17.206857-39.981714-17.142857-42.459428V527.177143h32.914286v432.384c0.009143 6.994286 2.88 29.101714 39.241142 29.101714l627.410286-0.182857 0.493714 0.027429c-0.091429-0.009143 6.308571 0.009143 11.465143-5.092572 5.540571-5.476571 8.484571-15.616 8.484572-29.330286V523.446857h32.914285v430.656c0 23.606857-6.436571 41.636571-19.136 53.586286-14.217143 13.385143-31.049143 13.888-34.971428 13.714286l-626.660572 0.173714z" fill="#515151" p-id="5628"></path><path d="M460.352 520h32.914286V996.571429h-32.914286zM539.209143 520h32.914286V996.571429h-32.914286zM808.228571 376.073143h-576a16.457143 16.457143 0 0 1 0-32.914286h576a16.457143 16.457143 0 0 1 0 32.914286z" fill="#515151" p-id="5629"></path></svg>