<?xml version="1.0" standalone="no"?><!DOCTYPE svg PUBLIC "-//W3C//DTD SVG 1.1//EN" "http://www.w3.org/Graphics/SVG/1.1/DTD/svg11.dtd"><svg t="1603629344530" class="icon" viewBox="0 0 1024 1024" version="1.1" xmlns="http://www.w3.org/2000/svg" p-id="43813" xmlns:xlink="http://www.w3.org/1999/xlink" width="64" height="64"><defs><style type="text/css"></style></defs><path d="M226.276134 799.645727c10.361472 16.882292 40.582177 65.08949 62.757263 100.460742 13.409024 21.362542 23.864645 38.035046 25.17454 40.227073 6.38369 10.716577 17.140178 17.100267 29.702887 17.480955l0.875992 0c11.813613 0 23.572989-5.571146 35.347715-17.027609 27.496533-32.1528 26.804745-48.109979 26.474201-55.779003l-0.049121-1.622018c0.199554-8.239033 0.15555-28.510678 0.107452-51.133994-0.073682-26.367772-0.14634-56.11364 0.165784-73.527054l103.771296-99.861056c29.736658 81.59621 88.539676 240.265401 92.59114 250.841778 8.560367 21.722763 25.544995 25.530668 32.426036 26.177428 13.804039 1.236213 28.222092-4.406568 39.903693-16.077935 1.636345-1.738681 40.124737-42.7302 56.865807-63.117484 18.469516-22.21909 17.675393-41.989291 17.339732-50.398201-0.049121-2.692448-2.931913-50.562961-8.015942-134.969305-4.82512-79.815572-10.585587-175.634374-13.706821-229.787266l179.272402-179.306173c43.970507-43.8344 50.529191-89.494466 50.51998-112.823897 0-25.743526-7.553385-48.63496-20.174426-61.183342-12.528939-12.601597-36.418145-20.436405-62.352014-20.436405-23.285426 0-68.849297 6.491143-112.419672 49.993976L583.747439 296.972587c-46.345714-2.941123-123.111688-7.94226-194.513233-12.59648-90.828922-5.931367-169.270128-11.039957-172.795587-11.126942-1.236213-0.068565-2.78455-0.116663-4.49867-0.116663-16.341961 0-31.154005 5.677575-45.256864 17.374526-20.315649 16.813727-61.388014 55.408549-63.267917 57.186117-11.540378 11.597685-17.355082 26.124214-15.970483 39.903693 0.904646 8.623815 5.550679 24.268871 26.270554 32.343144 10.049349 3.944011 168.792221 63.365136 252.868021 94.363591l-99.934737 103.089741c-4.252041 0.048098-9.126282 0.331567-14.802834 0.048098-18.421419 0-42.525529-0.335661-63.770385-0.64369-21.970415-0.312123-40.727494-0.618107-47.481639-0.383758l0.239465 6.100221-1.798035-6.100221-1.440884-0.019444c-10.040139 0-25.237988 3.073136-54.128331 27.268325l-2.570668 2.405908c-11.64783 11.715371-14.384282 23.479864-14.637051 31.295228-0.389898 11.789053 4.562118 22.409434 13.876698 29.889138C86.611675 712.518281 163.898536 761.84503 226.276134 799.645727L226.276134 799.645727zM252.79434 758.674675c-52.204423-31.603258-108.211635-67.183275-131.829651-82.618542 10.830169-8.385373 16.220181-10.503719 17.447184-10.907944l8.837696-0.024561c8.145908 0 21.196758 0.189321 36.024153 0.380688l4.104678 0.072658c29.489006 0.428786 64.441706 0.926137 82.745438 0.546472 11.334683-0.239465 21.912083-4.835354 29.790896-12.977168l108.203448-111.626571c10.09847-10.396266 14.194961-25.058901 10.979579-39.194507-3.223569-14.144817-13.278035-25.568532-26.88866-30.569669-70.464152-25.900099-209.6374-77.930552-250.296329-93.293161 12.125737-11.311146 40.916814-38.010485 55.876222-50.398201 7.456167-6.154459 11.979397-6.154459 14.14584-6.154459 0.789007 0 1.499215 0.023537 2.618766 0.081868 6.076684 0.263002 93.959366 5.989698 171.510253 11.054284 72.856756 4.751439 151.302056 9.860028 197.362254 12.785801 12.353945 0.833011 24.185979-3.725013 32.883475-12.417393l180.994709-181.130816c31.143771-31.081347 62.226142-35.726356 77.968416-35.726356 17.363269 0 26.839539 5.239579 27.866988 6.144225 7.6066 7.76215 16.172084 58.647468-30.346578 105.02286L691.580432 408.97473c-8.583904 8.599254-13.122485 20.479386-12.417393 32.620473 2.926796 51.298754 8.453938 142.954547 13.21561 221.90743l0.64369 10.791281c3.456894 57.230121 7.766243 128.468953 7.980125 133.898876 0.199554 5.311214 0.370455 9.504924-6.301822 17.529053-12.167694 14.836605-38.000252 42.753737-50.02877 55.661317-14.836605-39.845361-66.34003-178.959256-91.421444-248.008107-4.942806-13.623929-16.337867-23.698862-30.448913-26.985879-13.906375-3.238919-28.914904 0.881109-39.251815 10.814819L371.20371 725.309199c-8.196052 7.90849-12.835945 18.509427-13.088714 29.845134-0.365338 17.694836-0.297796 49.303211-0.224115 78.046191 0.048098 21.367658 0.092102 41.394721-0.097219 49.234646-0.024561 1.353899 0 2.902236 0.238442 4.35847 0 0.044004-1.285334 5.093239-9.743366 16.0063l-17.909741-28.583336c-22.721557-36.247244-53.852025-85.886116-63.283268-101.291706C263.550827 767.109169 258.594717 762.205251 252.79434 758.674675L252.79434 758.674675zM252.79434 758.674675" p-id="43814" fill="#515151"></path></svg>