<?xml version="1.0" standalone="no"?><!DOCTYPE svg PUBLIC "-//W3C//DTD SVG 1.1//EN" "http://www.w3.org/Graphics/SVG/1.1/DTD/svg11.dtd"><svg t="1603629198887" class="icon" viewBox="0 0 1024 1024" version="1.1" xmlns="http://www.w3.org/2000/svg" p-id="40109" xmlns:xlink="http://www.w3.org/1999/xlink" width="64" height="64"><defs><style type="text/css"></style></defs><path d="M881.71132 66.465784c-2.665713-15.452947-17.347087-25.806759-32.804127-23.155373l-411.691433 70.980611c-14.117532 2.435469-23.956621 14.909571-23.524786 28.830629l-12.81384 73.680093L183.458335 216.801744c-2.065032-0.301875-4.189416-0.398066-6.358825-0.220011-11.800767 0.983397-21.314445 9.18929-24.723078 20.005636-0.204661 0.633427-0.364297 1.284249-0.523933 1.935072-0.051165 0.212848-0.118704 0.418532-0.165776 0.633427-0.180102 0.817622-0.314155 1.650593-0.420579 2.492774-0.013303 0.105401-0.035816 0.207731-0.048095 0.313132-0.074701 0.64366-0.104377 1.298576-0.134053 1.955538-0.01842 0.36532-0.051165 0.726547-0.056282 1.094938 0 0.061398-0.00921 0.12075-0.00921 0.182149 0 0.240477 0.030699 0.472767 0.036839 0.711198 0.010233 0.624217 0.007163 1.245364 0.057305 1.87572l56.783261 709.017142c0.411369 6.439666 2.99931 12.288884 7.070023 16.856923 0.249687 0.286526 0.512676 0.558725 0.773619 0.833995 0.255827 0.26606 0.506537 0.536212 0.773619 0.792039 5.139044 5.04183 12.091386 8.115841 19.651572 8.115841 0.109494 0 0.223081-0.01228 0.332575-0.013303 0.092098 0.001023 0.181125 0.013303 0.274246 0.013303l477.973022 0c0.092098 0 0.181125-0.013303 0.273223-0.013303 0.110517 0.001023 0.223081 0.013303 0.333598 0.013303 7.577582 0 14.546298-3.088338 19.688411-8.148587 0.218988-0.210801 0.425695-0.433882 0.63752-0.651846 0.309038-0.323365 0.618077-0.645706 0.912789-0.984421 4.041036-4.553713 6.611581-10.373255 7.02909-16.778128 0-0.001023 0-0.00307 0.001023-0.004093l56.580646-706.07616c0.363274-1.798972 0.561795-3.65525 0.561795-5.558599 0-15.681144-12.929474-28.392654-28.877701-28.392654L458.514855 216.802768l8.706289-50.060139L858.555947 99.270934C874.006847 96.605222 884.377032 81.918731 881.71132 66.465784zM262.452457 926.612972l-6.821359-85.176938 440.259072 0-6.825452 85.176938L262.452457 926.612972zM700.43979 784.650727 251.082502 784.650727l-22.738887-283.924491 156.86363 0c0.026606 0 0.054235 0.00307 0.080841 0.00307 0.025583 0 0.051165-0.00307 0.077771-0.00307L723.19198 500.726236 700.43979 784.650727zM223.796042 443.940928l-13.643742-170.354899 180.847881 0L361.373421 443.940928 223.796042 443.940928zM741.393527 273.587052 727.735459 444.030979c-0.588401-0.036839-1.171686-0.089028-1.769296-0.089028L419.012166 443.941951 448.638927 273.587052 741.393527 273.587052z" p-id="40110" fill="#515151"></path></svg>