<?xml version="1.0" standalone="no"?><!DOCTYPE svg PUBLIC "-//W3C//DTD SVG 1.1//EN" "http://www.w3.org/Graphics/SVG/1.1/DTD/svg11.dtd"><svg t="1603334850998" class="icon" viewBox="0 0 1024 1024" version="1.1" xmlns="http://www.w3.org/2000/svg" p-id="6201" xmlns:xlink="http://www.w3.org/1999/xlink" width="64" height="64"><defs><style type="text/css"></style></defs><path d="M316.8 262.4c0 30.4 52.8 56 116.8 56s116.8-25.6 116.8-56-52.8-56-116.8-56-116.8 25.6-116.8 56z m0 0M348.8 635.2c-19.2 0-35.2 12.8-35.2 27.2v81.6c0 16 16 28.8 35.2 28.8 19.2 0 35.2-11.2 35.2-27.2v-83.2c0-14.4-16-27.2-35.2-27.2z m0 0M348.8 808c-19.2 0-35.2 12.8-35.2 27.2v80c0 16 16 30.4 35.2 30.4 19.2 0 35.2-12.8 35.2-27.2v-81.6c0-16-16-28.8-35.2-28.8z m0 0M348.8 476.8c-19.2 0-35.2 12.8-35.2 25.6V560c0 12.8 16 27.2 35.2 27.2 19.2 0 35.2-12.8 35.2-24v-57.6c0-16-16-28.8-35.2-28.8z m0 0" fill="#515151" p-id="6202"></path><path d="M881.6 110.4c-46.4-9.6-100.8-16-147.2-19.2-89.6-8-236.8-24-329.6-22.4C209.6 76.8 64 156.8 64 264v494.4c4.8 68.8 72 128 176 160 22.4 6.4 46.4-9.6 46.4-33.6 0-16-9.6-28.8-25.6-33.6-78.4-24-128-64-128-100.8 0-20.8-4.8-372.8-4.8-372.8 44.8 32 107.2 57.6 180.8 70.4 0 0 20.8 3.2 19.2 3.2 33.6 4.8 67.2 6.4 102.4 6.4 128 0 240-30.4 302.4-80 0 0-1.6 350.4-1.6 372.8 0 59.2-59.2 118.4-230.4 118.4-17.6 0-35.2 0-52.8-1.6-20.8-1.6-38.4 14.4-38.4 35.2 0 19.2 14.4 33.6 33.6 35.2 19.2 1.6 38.4 1.6 57.6 1.6 147.2 0 200-33.6 260.8-96 33.6 0 65.6 3.2 96 8 24 3.2 48-3.2 65.6-17.6 17.6-16 28.8-38.4 28.8-62.4l3.2-566.4c3.2-46.4-28.8-86.4-73.6-94.4z m-448 276.8c-171.2 0-300.8-65.6-300.8-124.8s128-124.8 300.8-124.8c171.2 0 300.8 65.6 300.8 124.8s-128 124.8-300.8 124.8z m451.2 344c0 12.8-4.8 25.6-16 33.6-9.6 8-22.4 12.8-35.2 11.2-11.2-1.6-22.4-1.6-33.6-3.2 1.6-4.8 1.6-510.4 1.6-510.4 0-38.4-19.2-73.6-52.8-102.4 33.6 3.2 67.2 6.4 99.2 11.2 22.4 3.2 40 22.4 40 46.4l-3.2 513.6z" fill="#515151" p-id="6203"></path></svg>