<?xml version="1.0" standalone="no"?><!DOCTYPE svg PUBLIC "-//W3C//DTD SVG 1.1//EN" "http://www.w3.org/Graphics/SVG/1.1/DTD/svg11.dtd"><svg t="1603629088798" class="icon" viewBox="0 0 1024 1024" version="1.1" xmlns="http://www.w3.org/2000/svg" p-id="39515" xmlns:xlink="http://www.w3.org/1999/xlink" width="64" height="64"><defs><style type="text/css"></style></defs><path d="M767.72 177.34H450.7c-11.67 0-21.22-9.55-21.22-21.22 0-11.67 9.55-21.22 21.22-21.22h317.01c11.67 0 21.22 9.55 21.22 21.22 0.01 11.67-9.54 21.22-21.21 21.22z" p-id="39516" fill="#515151"></path><path d="M663.04 519.3c-27.87-9.34-48.93-35.09-62.62-76.53-9.83-29.77-16.14-68.36-18.75-114.69-2.14-37.86-1.49-74.47-0.23-102.37-16.06 19.55-39.5 51.82-72.96 105.09-40.23 64.04-74.82 126.47-75.17 127.09l-35-19.36c0.35-0.63 35.48-64.03 76.3-129 24.12-38.4 45.53-69.91 63.65-93.67 32.63-42.81 48.78-53.01 59.21-57.12l30.59-12.05-3.36 32.7c-0.07 0.71-7.29 72.52-3.05 146.87 5.06 88.75 24.79 145.29 54.13 155.12l-12.74 37.92z" p-id="39517" fill="#515151"></path><path d="M335.31 875.66c-60.71 0-117.79-23.64-160.72-66.57-42.93-42.93-66.57-100.01-66.57-160.72 0-60.71 23.64-117.79 66.57-160.72 42.93-42.93 100.01-66.57 160.72-66.57s117.79 23.64 160.72 66.57c42.93 42.93 66.57 100.01 66.57 160.72 0 60.71-23.64 117.79-66.57 160.72-42.93 42.93-100.01 66.57-160.72 66.57z m0-414.59c-103.27 0-187.29 84.02-187.29 187.29s84.02 187.29 187.29 187.29S522.6 751.64 522.6 648.37c0-103.28-84.02-187.3-187.29-187.3zM777.5 770.68c-91.32 0-165.62-74.3-165.62-165.62 0-91.32 74.3-165.62 165.62-165.62 91.32 0 165.62 74.3 165.62 165.62 0.01 91.33-74.29 165.62-165.62 165.62z m0-291.24c-69.27 0-125.62 56.35-125.62 125.62s56.35 125.62 125.62 125.62 125.62-56.35 125.62-125.62-56.35-125.62-125.62-125.62z" p-id="39518" fill="#515151"></path><path d="M275.41 626.5l-38.51-10.83c0.55-1.95 13.87-47.88 53.84-65.28 25-10.88 53.55-8.23 84.84 7.88l-18.31 35.56c-20.1-10.35-37.11-12.62-50.56-6.77-22.4 9.76-31.22 39.14-31.3 39.44z" p-id="39519" fill="#515151"></path><path d="M366.43 576.05m-20.11 0a20.11 20.11 0 1 0 40.22 0 20.11 20.11 0 1 0-40.22 0Z" p-id="39520" fill="#515151"></path><path d="M256.05 621.89m-20.11 0a20.11 20.11 0 1 0 40.22 0 20.11 20.11 0 1 0-40.22 0Z" p-id="39521" fill="#515151"></path></svg>