<?xml version="1.0" standalone="no"?><!DOCTYPE svg PUBLIC "-//W3C//DTD SVG 1.1//EN" "http://www.w3.org/Graphics/SVG/1.1/DTD/svg11.dtd"><svg t="1603625847125" class="icon" viewBox="0 0 1024 1024" version="1.1" xmlns="http://www.w3.org/2000/svg" p-id="4626" xmlns:xlink="http://www.w3.org/1999/xlink" width="64" height="64"><defs><style type="text/css"></style></defs><path d="M778.7 313.8v434.3c0 11.1-9 20.1-20.1 20.1H317.3c-29.7-0.1-63.3-23.3-63.3-64.6 0-35 24.1-64.5 52.5-64.5h402.1c13.5 0 24.5-11 24.5-24.5V219.1c0-13.5-10.9-24.6-24.5-24.6H352.4c-81.3 0-147.4 66.1-147.4 147.4v362.9c0 6.8 0.6 13.5 1.8 20.1 9 52.4 50.3 92.2 99.6 92.2h452c38.1-0.1 69.1-30.9 69.2-69.2v-434c0.1-33-48.9-32.5-48.9-0.1z m-426.3-70.3H684V590H306.5c-18.7 0.1-37 5.7-52.5 16.4V341.9c0.1-54.2 44.2-98.3 98.4-98.4z m0 0" fill="#515151" p-id="4627"></path><path d="M684 735H366.5c-16.8 0-30.5-13.7-30.5-30.5s13.7-30.5 30.5-30.5H684c16.8 0 30.5 13.7 30.5 30.5S700.8 735 684 735z" fill="#515151" p-id="4628"></path></svg>