<?xml version="1.0" standalone="no"?><!DOCTYPE svg PUBLIC "-//W3C//DTD SVG 1.1//EN" "http://www.w3.org/Graphics/SVG/1.1/DTD/svg11.dtd"><svg t="1603628501153" class="icon" viewBox="0 0 1024 1024" version="1.1" xmlns="http://www.w3.org/2000/svg" p-id="18083" xmlns:xlink="http://www.w3.org/1999/xlink" width="64" height="64"><defs><style type="text/css"></style></defs><path d="M629.76 447.59a37.734 37.734 0 0 0-20.173 5.786 38.246 38.246 0 0 0-49.254 57.395l49.254 49.306 49.05-49.101h0.256a38.298 38.298 0 0 0-29.133-63.386z" fill="#666666" p-id="18084"></path><path d="M827.29 188.211H639.54a30.72 30.72 0 0 0-30.72 32.82q0.306 3.43 0.306 6.911a97.792 97.792 0 1 1-195.532 0c0-2.304 0-4.608 0.307-6.912a30.72 30.72 0 0 0-30.72-32.819H195.533a92.16 92.16 0 0 0-92.16 92.16v97.28a92.16 92.16 0 0 0 92.16 92.16h38.093v349.85a92.16 92.16 0 0 0 92.16 92.16h371.25a92.16 92.16 0 0 0 92.16-92.16V469.658h38.094a92.16 92.16 0 0 0 92.16-92.16v-97.28a92.16 92.16 0 0 0-92.16-92.007z m30.72 189.44a30.72 30.72 0 0 1-30.72 30.72h-68.813a30.72 30.72 0 0 0-30.72 30.72v380.57a30.72 30.72 0 0 1-30.72 30.72H325.786a30.72 30.72 0 0 1-30.72-30.72V438.938a30.72 30.72 0 0 0-30.72-30.72h-68.813a30.72 30.72 0 0 1-30.72-30.72v-97.28a30.72 30.72 0 0 1 30.72-30.72H353.69a159.18 159.18 0 0 0 315.443 0H827.29a30.72 30.72 0 0 1 30.72 30.72z" fill="#666666" p-id="18085"></path></svg>