<?xml version="1.0" standalone="no"?><!DOCTYPE svg PUBLIC "-//W3C//DTD SVG 1.1//EN" "http://www.w3.org/Graphics/SVG/1.1/DTD/svg11.dtd"><svg t="1603625944691" class="icon" viewBox="0 0 1024 1024" version="1.1" xmlns="http://www.w3.org/2000/svg" p-id="6572" xmlns:xlink="http://www.w3.org/1999/xlink" width="64" height="64"><defs><style type="text/css"></style></defs><path d="M725.333333 362.666667H298.666667a21.333333 21.333333 0 0 1-21.333334-26.453334l28.8-116.906666A58.24 58.24 0 0 1 362.666667 170.666667h298.666666a58.453333 58.453333 0 0 1 55.466667 49.28l29.866667 116.266666A21.333333 21.333333 0 0 1 725.333333 362.666667z m-399.36-42.666667h372.053334l-21.333334-90.666667c-2.133333-9.386667-7.893333-16-13.866666-16H362.666667c-5.973333 0-11.733333 6.613333-13.653334 15.36z" fill="#515151" p-id="6573"></path><path d="M832 362.666667v426.666666H192V362.666667h640m0-42.666667H192a42.666667 42.666667 0 0 0-42.666667 42.666667v426.666666c0 23.466667-2.133333 42.666667 21.333334 42.666667h661.333333a42.666667 42.666667 0 0 0 42.666667-42.666667V362.666667a42.666667 42.666667 0 0 0-42.666667-42.666667z" fill="#515151" p-id="6574"></path><path d="M832 469.333333H192a21.333333 21.333333 0 0 1 0-42.666666h640a21.333333 21.333333 0 0 1 0 42.666666z" fill="#515151" p-id="6575"></path><path d="M597.333333 640h-170.666666a21.333333 21.333333 0 0 1 0-42.666667h170.666666a21.333333 21.333333 0 0 1 0 42.666667z" fill="#515151" p-id="6576"></path><path d="M512 725.333333a21.333333 21.333333 0 0 1-21.333333-21.333333v-170.666667a21.333333 21.333333 0 0 1 42.666666 0v170.666667a21.333333 21.333333 0 0 1-21.333333 21.333333z" fill="#515151" p-id="6577"></path></svg>