<?xml version="1.0" standalone="no"?><!DOCTYPE svg PUBLIC "-//W3C//DTD SVG 1.1//EN" "http://www.w3.org/Graphics/SVG/1.1/DTD/svg11.dtd"><svg t="1603628760925" class="icon" viewBox="0 0 1024 1024" version="1.1" xmlns="http://www.w3.org/2000/svg" p-id="26874" xmlns:xlink="http://www.w3.org/1999/xlink" width="64" height="64"><defs><style type="text/css"></style></defs><path d="M326.050909 781.498182V491.752727h35.84a20.014545 20.014545 0 0 1 20.014546 20.014546v249.949091a20.014545 20.014545 0 0 1-20.014546 19.781818h-35.84z" fill="#515151" p-id="26875"></path><path d="M706.56 309.061818a23.272727 23.272727 0 0 1-23.272727-23.272727v-42.589091a34.909091 34.909091 0 0 0-34.909091-34.909091H577.163636a23.272727 23.272727 0 0 1-23.272727-23.272727V142.894545a44.218182 44.218182 0 0 0-33.28-43.752727A42.123636 42.123636 0 0 0 470.109091 139.636364v45.381818a23.272727 23.272727 0 0 1-23.272727 23.272727h-71.214546a34.909091 34.909091 0 0 0-34.909091 34.909091v42.821818a23.272727 23.272727 0 0 1-46.545454 0v-42.821818a81.454545 81.454545 0 0 1 81.454545-81.454545h47.941818V139.636364a88.436364 88.436364 0 0 1 106.123637-86.109091 90.065455 90.065455 0 0 1 69.818182 89.367272v18.618182h47.941818a81.454545 81.454545 0 0 1 81.454545 81.454546v42.821818a23.272727 23.272727 0 0 1-22.341818 23.272727z" fill="#515151" p-id="26876"></path><path d="M721.454545 314.647273a46.545455 46.545455 0 0 1 46.545455 46.545454v518.050909a46.545455 46.545455 0 0 1-46.545455 46.545455H302.545455a46.545455 46.545455 0 0 1-46.545455-46.545455V361.192727a46.545455 46.545455 0 0 1 46.545455-46.545454h418.90909m0-46.545455H302.545455a93.090909 93.090909 0 0 0-93.09091 93.090909v518.050909a93.090909 93.090909 0 0 0 93.09091 93.090909h418.90909a93.090909 93.090909 0 0 0 93.09091-93.090909V361.192727a93.090909 93.090909 0 0 0-93.09091-93.090909z" fill="#515151" p-id="26877"></path></svg>