<?xml version="1.0" standalone="no"?><!DOCTYPE svg PUBLIC "-//W3C//DTD SVG 1.1//EN" "http://www.w3.org/Graphics/SVG/1.1/DTD/svg11.dtd"><svg t="1603334715577" class="icon" viewBox="0 0 1024 1024" version="1.1" xmlns="http://www.w3.org/2000/svg" p-id="4330" xmlns:xlink="http://www.w3.org/1999/xlink" width="64" height="64"><defs><style type="text/css"></style></defs><path d="M890.80776 781.544974c-23.477954 0-42.892416-18.962963-42.892416-42.892417v-53.276896H171.569665v53.276896c0 23.477954-18.962963 42.892416-42.892416 42.892417s-42.892416-18.962963-42.892417-42.892417V297.537919c0-23.477954 18.962963-42.892416 42.892417-42.892416s42.892416 18.962963 42.892416 42.892416v264.126984h676.345679V297.537919c0-23.477954 18.962963-42.892416 42.892416-42.892416s42.892416 18.962963 42.892416 42.892416v441.114638c-0.451499 23.929453-19.414462 42.892416-42.892416 42.892417zM158.024691 657.834215h703.887126c7.675485 0 13.544974 6.320988 13.544973 13.544974v67.273368c0 8.578483 6.772487 15.35097 15.35097 15.35097s15.35097-6.772487 15.35097-15.35097V297.537919c0-8.578483-6.772487-15.35097-15.35097-15.35097s-15.35097 6.772487-15.35097 15.35097v277.671958c0 7.675485-6.320988 13.544974-13.544973 13.544973H158.024691c-7.675485 0-13.544974-6.320988-13.544973-13.544973V297.537919c0-8.578483-6.772487-15.35097-15.35097-15.35097s-15.35097 6.772487-15.35097 15.35097v441.114638c0 8.578483 6.772487 15.35097 15.35097 15.35097s15.35097-6.772487 15.35097-15.35097v-67.273368c-0.451499-7.223986 5.869489-13.544974 13.544973-13.544974z" fill="#808080" p-id="4331"></path><path d="M348.557319 572.049383H248.776014c-31.153439 0-56.888889-25.283951-56.888889-56.888889s25.283951-56.888889 56.888889-56.888889h99.781305c31.153439 0 56.888889 25.283951 56.888889 56.888889s-25.73545 56.888889-56.888889 56.888889z m-99.781305-85.784833c-16.253968 0-29.347443 13.093474-29.347443 29.347443s13.093474 29.347443 29.347443 29.347443h99.781305c16.253968 0 29.347443-13.093474 29.347443-29.347443s-13.093474-29.347443-29.347443-29.347443H248.776014z" fill="#808080" p-id="4332"></path><path d="M331.400353 466.398589C290.765432 466.398589 257.354497 433.439153 257.354497 392.804233s32.959436-74.045855 74.045856-74.045856S405.446208 352.169312 405.446208 392.804233s-33.410935 73.594356-74.045855 73.594356z m0-120.098765c-25.73545 0-46.504409 20.768959-46.504409 46.504409 0 25.73545 20.768959 46.504409 46.504409 46.504409S377.904762 418.539683 377.904762 392.804233c0-25.73545-20.768959-46.504409-46.504409-46.504409zM751.746032 572.049383h-270.447972c-36.119929 0-65.467372-27.992945-65.467372-62.306879V385.128748c0-34.313933 29.347443-62.306878 65.467372-62.306879h207.689594c25.283951 0 48.310406 13.996473 59.146385 35.216932l63.209876 124.613756c9.481481 18.511464 8.578483 40.183422-2.257495 58.243387-12.641975 19.865961-33.862434 31.153439-57.340388 31.153439z m-270.447972-221.234568c-21.220459 0-37.925926 15.35097-37.925926 34.765432V510.194004c0 18.962963 17.156966 34.765432 37.925926 34.765432h270.447972c13.996473 0 26.638448-6.772487 33.410934-17.608466 5.869489-9.932981 6.320988-21.220459 1.354498-31.604938l-63.209877-124.613757c-6.320988-12.190476-19.865961-20.31746-34.765432-20.31746h-207.238095z" fill="#808080" p-id="4333"></path></svg>